<svg xmlns="http://www.w3.org/2000/svg" width="80" height="80" viewBox="0 0 80 80">
  <g id="quality" transform="translate(-204.5 -1492.715)">
    <g id="Ellipse_96" data-name="Ellipse 96" transform="translate(204.5 1492.715)" fill="#fdfdfd" stroke="#3d94c1" stroke-width="1" stroke-dasharray="1">
      <circle cx="40" cy="40" r="40" stroke="none"/>
      <circle cx="40" cy="40" r="39.5" fill="none"/>
    </g>
    <g id="Group_419" data-name="Group 419" transform="translate(223.71 1514.668)">
      <path id="Path_1604" data-name="Path 1604" d="M301.39,288.58a.772.772,0,0,0-.772-.772,2.317,2.317,0,0,1-2.316-2.317.772.772,0,0,0-1.545,0,2.317,2.317,0,0,1-2.317,2.317.772.772,0,0,0,0,1.544,2.317,2.317,0,0,1,2.317,2.317.772.772,0,1,0,1.545,0,2.317,2.317,0,0,1,2.316-2.317A.772.772,0,0,0,301.39,288.58Zm-3.861.8a3.851,3.851,0,0,0-.8-.8,3.851,3.851,0,0,0,.8-.8,3.852,3.852,0,0,0,.8.8A3.852,3.852,0,0,0,297.529,289.376Z" transform="translate(-292.306 -269.098)" fill="#1a72a0" stroke="#1a72a0" stroke-width="0.2"/>
      <path id="Path_1605" data-name="Path 1605" d="M431.512,262.323a2.316,2.316,0,0,1-2.317-2.316.772.772,0,0,0-1.545,0,2.316,2.316,0,0,1-2.316,2.316.772.772,0,0,0,0,1.545,2.317,2.317,0,0,1,2.316,2.317.772.772,0,0,0,1.545,0,2.317,2.317,0,0,1,2.317-2.317.772.772,0,0,0,0-1.545Zm-3.089,1.569a3.854,3.854,0,0,0-.8-.8,3.855,3.855,0,0,0,.8-.8,3.851,3.851,0,0,0,.8.8A3.85,3.85,0,0,0,428.423,263.891Z" transform="translate(-387.504 -250.563)" fill="#1a72a0" stroke="#1a72a0" stroke-width="0.2"/>
      <g id="Group_414" data-name="Group 414" transform="translate(11.281 0)">
        <path id="Path_1583" data-name="Path 1583" d="M341.031,249.414a10.987,10.987,0,1,1,10.988-10.987A11,11,0,0,1,341.031,249.414Zm0-20.258a9.271,9.271,0,1,0,9.272,9.271A9.282,9.282,0,0,0,341.031,229.155Z" transform="translate(-330.043 -227.439)" fill="#1a72a0" stroke="#1a72a0" stroke-width="0.2"/>
      </g>
      <g id="Group_417" data-name="Group 417" transform="translate(0 25.396)">
        <g id="Group_415" data-name="Group 415" transform="translate(0 2.018)">
          <path id="Path_1584" data-name="Path 1584" d="M310.627,339.918a11.825,11.825,0,0,1-2.661-.307c-4.573-1.053-10.961-2.675-12.215-3l-6.1,2.227a.727.727,0,0,1-.5-1.366l6.31-2.3a.729.729,0,0,1,.43-.021c.073.019,7.351,1.879,12.4,3.042a9.9,9.9,0,0,0,8-1.523.774.774,0,0,1,.08-.056l9.083-5.547.031-.018c.116-.062.15-.113.153-.126a.39.39,0,0,0-.061-.211c-.01-.014-.009-.013-.02-.031a2.627,2.627,0,0,0-3.245-1.079.681.681,0,0,1-.068.023,33.685,33.685,0,0,0-5.4,2.823.727.727,0,1,1-.769-1.233,36.215,36.215,0,0,1,5.721-2.973,4.06,4.06,0,0,1,4.991,1.668,1.792,1.792,0,0,1,.264,1.347,1.638,1.638,0,0,1-.856,1.06l-9.032,5.517A11.141,11.141,0,0,1,310.627,339.918Z" transform="translate(-288.675 -327.963)" fill="#1a72a0" stroke="#1a72a0" stroke-width="0.2"/>
        </g>
        <g id="Group_416" data-name="Group 416" transform="translate(6.31 0)">
          <path id="Path_1585" data-name="Path 1585" d="M324.925,329.242a.727.727,0,0,1-.006-1.454l6.9-.054a1.088,1.088,0,0,0,.71-.295.911.911,0,0,0,.075-.749c-.022-.106-.031-.161-.037-.2l-.024-.082c-.324-1.108-.849-1.689-2.805-1.78l-5.609.047a.71.71,0,0,1-.526-.219,9.306,9.306,0,0,0-3.064-1.882,8.9,8.9,0,0,0-7.653.688.727.727,0,1,1-.693-1.277,10.372,10.372,0,0,1,8.921-.748,11,11,0,0,1,3.294,1.982l5.338-.045h.038c2.4.108,3.6.926,4.155,2.825a1.658,1.658,0,0,1,.065.268c0,.014.006.04.023.125a2.257,2.257,0,0,1-.368,1.96,2.517,2.517,0,0,1-1.826.834l-6.906.053Z" transform="translate(-311.815 -320.562)" fill="#1a72a0" stroke="#1a72a0" stroke-width="0.2"/>
        </g>
      </g>
      <g id="Group_418" data-name="Group 418" transform="translate(11.281 0)">
        <path id="Path_1586" data-name="Path 1586" d="M341.031,249.414a10.987,10.987,0,1,1,10.988-10.987A11,11,0,0,1,341.031,249.414Zm0-20.258a9.271,9.271,0,1,0,9.272,9.271A9.282,9.282,0,0,0,341.031,229.155Z" transform="translate(-330.043 -227.439)" fill="#1a72a0" stroke="#1a72a0" stroke-width="0.2"/>
      </g>
      <path id="Path_1587" data-name="Path 1587" d="M365.325,251.011h-6.551v1.242h1.2c1.153,0,1.863.345,2.113,1.025h-3.309V254.3h3.38c-.171.922-1.024,1.427-2.423,1.427h-.957v1.115l.037.039c1.389,1.478,2.474,2.769,3.648,4.185l.041.049h1.783l-.181-.223c-1.149-1.409-2.363-2.869-3.487-4.06,1.75-.145,2.887-1.075,3.085-2.534h1.626v-1.018h-1.644a2.376,2.376,0,0,0-.6-1.248h2.248Z" transform="translate(-339.657 -244.583)" fill="#1a72a0" stroke="#1a72a0" stroke-width="0.2"/>
    </g>
  </g>
</svg>
