<svg xmlns="http://www.w3.org/2000/svg" width="80" height="80" viewBox="0 0 80 80">
  <g id="online_docs" data-name="online docs" transform="translate(-36 -1492.715)">
    <g id="Ellipse_194" data-name="Ellipse 194" transform="translate(36 1492.715)" fill="#fdfdfd" stroke="#3d94c1" stroke-width="1" stroke-dasharray="1">
      <circle cx="40" cy="40" r="40" stroke="none"/>
      <circle cx="40" cy="40" r="39.5" fill="none"/>
    </g>
    <path id="Path_1602" data-name="Path 1602" d="M117.28,592.218H117a.607.607,0,0,0-.412-.733l-4.03-1.214a7.878,7.878,0,0,1-.716-2.779,8.305,8.305,0,0,0,2.872-4.995,2.382,2.382,0,0,0,1.333-.846,2.673,2.673,0,0,0,.5-1.823,2.438,2.438,0,0,0-.678-2.042,1.863,1.863,0,0,0-.664-.381c.643-1.512,1.762-4.878.486-7.8-.9-2.058-2.785-3.476-5.617-4.215a6.784,6.784,0,0,0-4.362.243,5.357,5.357,0,0,0-1.925,1.42,5.375,5.375,0,0,0-5.431,5,9.663,9.663,0,0,0,1.44,5.489,1.841,1.841,0,0,0-.443.334,2.515,2.515,0,0,0-.593,1.954,2.677,2.677,0,0,0,.5,1.823,2.38,2.38,0,0,0,1.332.846,8.3,8.3,0,0,0,2.865,4.983,7.894,7.894,0,0,1-.717,2.792L98.7,591.487a.592.592,0,0,0-.094.037.608.608,0,0,0-.32.694h-.2a8.15,8.15,0,0,0-1.124.079.6.6,0,0,0-.084.012A8.087,8.087,0,0,0,90,600.287v6.773a.608.608,0,0,0,.608.608h34.132a.607.607,0,0,0,.607-.608v-6.773A8.08,8.08,0,0,0,117.28,592.218Zm-1.775.3a.593.593,0,0,0-.038.076L114,595.55a.607.607,0,0,0,.091.675l.949,1.066-4.285,6.926,1.911-12.645,2.882.87ZM106.1,606.453l-1.552-10.266q1.566.151,3.142.153,1.527,0,3.048-.15l-1.551,10.263Zm-6.538-34.281a4.179,4.179,0,0,1,4.461-3.905.6.6,0,0,0,.539-.243,4.084,4.084,0,0,1,1.637-1.281,5.564,5.564,0,0,1,3.568-.182c2.449.639,4.066,1.823,4.806,3.52a8.385,8.385,0,0,1-.082,5.737,4.45,4.45,0,0,0-3.692-3.273.673.673,0,0,0-.168.006,8.113,8.113,0,0,1-6.456-2.037.608.608,0,0,0-.7-.1,6.872,6.872,0,0,0-3.205,5.485A9.165,9.165,0,0,1,99.558,572.172Zm2.168,9.754a.608.608,0,0,0-.534-.552,1.386,1.386,0,0,1-.972-.461,1.5,1.5,0,0,1-.255-.987.633.633,0,0,0,0-.122,1.448,1.448,0,0,1,.249-1.087.823.823,0,0,1,.587-.209l.041,0a.575.575,0,0,0,.575-.359.6.6,0,0,0,.05-.3s0-.006,0-.009c-.343-3.777,1.442-5.548,2.216-6.131a9.252,9.252,0,0,0,7.056,2.044c2.74.353,2.928,4.023,2.936,4.181a.61.61,0,0,0,.008.074s0,.005,0,.008,0,.013,0,.02,0,.018.006.026.007.024.01.035l.006.018c.005.014.011.028.017.041l0,.01c.007.016.015.031.024.046v0a.607.607,0,0,0,.632.294.921.921,0,0,1,.66.173,1.448,1.448,0,0,1,.274,1.115.628.628,0,0,0,0,.118,1.5,1.5,0,0,1-.255.992,1.386,1.386,0,0,1-.972.461.608.608,0,0,0-.534.55,6.942,6.942,0,0,1-2.63,4.732.621.621,0,0,0-.137.092,6.022,6.022,0,0,1-3.141.917C102.285,587.49,101.746,582.152,101.726,581.926Zm5.934,6.954a7.583,7.583,0,0,0,3.036-.694,7.748,7.748,0,0,0,.833,2.737l-.608,4.024a30.617,30.617,0,0,1-6.565,0l-.606-4.011a7.773,7.773,0,0,0,.842-2.759A7.623,7.623,0,0,0,107.66,588.88Zm-5.04,2.692.586,3.875a.6.6,0,0,0,.041.274l1.284,8.494-4.285-6.926.95-1.066a.608.608,0,0,0,.09-.675l-1.547-3.107Zm-11.4,8.715a6.869,6.869,0,0,1,3.959-6.207,7.805,7.805,0,0,0-.838,4.122,3.654,3.654,0,0,0-1.731,4.27,3.8,3.8,0,0,0,.615,1.266.613.613,0,0,0,.728.247l.729-.27a.608.608,0,1,0-.425-1.139l-.27.1a2.6,2.6,0,0,1-.208-.527,2.439,2.439,0,0,1,1.548-3.06,2.2,2.2,0,0,1,1.688.214,2.685,2.685,0,0,1,1.323,2.179l-.038,0a.608.608,0,0,0-.143,1.207l.685.081a.49.49,0,0,0,.072,0h0a.608.608,0,0,0,.6-.536.635.635,0,0,0,0-.078,3.9,3.9,0,0,0-1.911-3.914,3.4,3.4,0,0,0-2.063-.429c-.012-2.917,1.311-4.065,1.672-4.325a6.918,6.918,0,0,1,.867-.057h.79l1.141,2.289-.978,1.1a.608.608,0,0,0-.061.724l5.511,8.909H91.217Zm32.916,6.166H110.8l5.509-8.911a.608.608,0,0,0-.061-.724l-.978-1.1,1.14-2.287h.874c.172,0,.341.009.51.022.33.351,1.308,1.628,1.5,4.567a2.4,2.4,0,1,0,3.038,2.316h0a2.4,2.4,0,0,0-1.821-2.33,10.493,10.493,0,0,0-1.027-4.209,6.863,6.863,0,0,1,4.656,6.489Zm-4.224-7.3h.027a1.187,1.187,0,0,1,1.173,1.186h0a1.187,1.187,0,1,1-1.2-1.186Z" transform="translate(-31.675 946.312)" fill="#1a72a0"/>
  </g>
</svg>
