<svg xmlns="http://www.w3.org/2000/svg" width="80" height="80" viewBox="0 0 80 80">
  <g id="confidentiality" transform="translate(-204.5 -1268.023)">
    <g id="Ellipse_195" data-name="Ellipse 195" transform="translate(204.5 1268.023)" fill="#fdfdfd" stroke="#3d94c1" stroke-width="1" stroke-dasharray="1">
      <circle cx="40" cy="40" r="40" stroke="none"/>
      <circle cx="40" cy="40" r="39.5" fill="none"/>
    </g>
    <g id="Group_431" data-name="Group 431" transform="translate(224.847 1293.066)">
      <path id="Path_1599" data-name="Path 1599" d="M652.91,505.94H651.8v-2.51a4.776,4.776,0,0,0-9.553,0v2.51h-1.11a.708.708,0,0,0-.708.708v10.434a.708.708,0,0,0,.708.708H652.91a.708.708,0,0,0,.708-.708V506.648A.708.708,0,0,0,652.91,505.94Zm-9.247-2.51a3.361,3.361,0,0,1,6.722,0v2.51h-6.722v-2.51Zm8.539,12.944H641.845v-9.019H652.2Z" transform="translate(-628.765 -491.468)" fill="#1a72a0"/>
      <path id="Path_1600" data-name="Path 1600" d="M664.536,553.6v1.719a.708.708,0,1,0,1.415,0V553.6a2.179,2.179,0,1,0-1.415,0Zm.708-2.824a.764.764,0,1,1-.764.764A.765.765,0,0,1,665.243,550.775Z" transform="translate(-646.985 -532.284)" fill="#1a72a0"/>
      <path id="Path_1601" data-name="Path 1601" d="M621.108,470.286a1.931,1.931,0,0,0-1.525-.739h-2.445V467a1.8,1.8,0,0,0-1.8-1.8h-17.09a.279.279,0,0,1-.263-.185l-.734-2.055a1.747,1.747,0,0,0-1.642-1.157h-8.568a1.747,1.747,0,0,0-1.642,1.157l-.734,2.055a.279.279,0,0,1-.263.185h-1.992a1.8,1.8,0,0,0-1.8,1.8v22.924a1.8,1.8,0,0,0,1.8,1.8h32.926a1.8,1.8,0,0,0,1.79-1.69l4.339-18.09A1.932,1.932,0,0,0,621.108,470.286Zm-5.386,19.64a.381.381,0,0,1-.38.38H582.416a.381.381,0,0,1-.38-.38V467a.381.381,0,0,1,.38-.38h1.992A1.7,1.7,0,0,0,586,465.5l.734-2.055a.328.328,0,0,1,.309-.218h8.568a.328.328,0,0,1,.309.218l.734,2.056h0a1.7,1.7,0,0,0,1.6,1.124h17.09a.381.381,0,0,1,.38.38v22.924Zm4.373-18.314-2.957,12.329V470.962h2.445a.526.526,0,0,1,.512.649Z" transform="translate(-580.62 -461.809)" fill="#1a72a0"/>
    </g>
  </g>
</svg>
