<svg xmlns="http://www.w3.org/2000/svg" width="80" height="80" viewBox="0 0 80 80">
  <g id="accessibility" transform="translate(-36 -1058.836)">
    <g id="Ellipse_198" data-name="Ellipse 198" transform="translate(36 1058.836)" fill="#fdfdfd" stroke="#3d94c1" stroke-width="1" stroke-dasharray="1">
      <circle cx="40" cy="40" r="40" stroke="none"/>
      <circle cx="40" cy="40" r="39.5" fill="none"/>
    </g>
    <g id="Group_429" data-name="Group 429" transform="translate(64.592 1080.165)">
      <g id="Group_422" data-name="Group 422" transform="translate(5.555 0)">
        <g id="Group_421" data-name="Group 421" transform="translate(0 0)">
          <path id="Path_1591" data-name="Path 1591" d="M607.81,71.963a.654.654,0,0,0-.655.655v2.619a.655.655,0,1,0,1.309,0V72.618A.655.655,0,0,0,607.81,71.963Z" transform="translate(-607.155 -71.963)" fill="#1a72a0" stroke="#1a72a0" stroke-width="0.2"/>
        </g>
      </g>
      <g id="Group_424" data-name="Group 424" transform="translate(0 2.636)">
        <g id="Group_423" data-name="Group 423">
          <path id="Path_1592" data-name="Path 1592" d="M587.969,84.521l-1.852-1.852a.655.655,0,0,0-.926.926l1.852,1.852a.655.655,0,0,0,.926-.926Z" transform="translate(-585 -82.478)" fill="#1a72a0" stroke="#1a72a0" stroke-width="0.2"/>
        </g>
      </g>
      <g id="Group_426" data-name="Group 426" transform="translate(9.258 2.636)">
        <g id="Group_425" data-name="Group 425" transform="translate(0)">
          <path id="Path_1593" data-name="Path 1593" d="M624.895,82.67a.654.654,0,0,0-.926,0l-1.852,1.852a.655.655,0,0,0,.926.926l1.852-1.852A.655.655,0,0,0,624.895,82.67Z" transform="translate(-621.926 -82.478)" fill="#1a72a0" stroke="#1a72a0" stroke-width="0.2"/>
        </g>
      </g>
      <g id="Group_428" data-name="Group 428" transform="translate(0.317 5.237)">
        <g id="Group_427" data-name="Group 427" transform="translate(0)">
          <path id="Path_1594" data-name="Path 1594" d="M607.87,104.678a3.259,3.259,0,0,0-2.169.825,3.27,3.27,0,0,0-5.237-1.309,3.271,3.271,0,0,0-5.033-1.478V96.124a3.273,3.273,0,1,0-6.546,0v12.548a3.279,3.279,0,0,0-2.619,3.207v3.928a12.417,12.417,0,0,0,11.057,12.362.713.713,0,0,0,.073,0,.655.655,0,0,0,.071-1.305,11.109,11.109,0,0,1-9.892-11.06V111.88a1.968,1.968,0,0,1,1.31-1.852v4.47a.655.655,0,1,0,1.309,0V96.124a1.964,1.964,0,1,1,3.928,0v13.137a.655.655,0,0,0,1.309,0v-3.928a1.964,1.964,0,0,1,3.928,0v3.928a.655.655,0,1,0,1.309,0v-2.619a1.964,1.964,0,0,1,3.928,0v2.619a.655.655,0,1,0,1.309,0v-1.309a1.964,1.964,0,0,1,3.928,0v7.856a11.109,11.109,0,0,1-9.892,11.06.655.655,0,0,0,.071,1.305.719.719,0,0,0,.073,0,12.417,12.417,0,0,0,11.057-12.362v-7.856A3.277,3.277,0,0,0,607.87,104.678Z" transform="translate(-586.266 -92.851)" fill="#1a72a0" stroke="#1a72a0" stroke-width="0.2"/>
        </g>
      </g>
    </g>
  </g>
</svg>
