<svg xmlns="http://www.w3.org/2000/svg" width="80" height="80" viewBox="0 0 80 80">
  <g id="Security" transform="translate(-36 -1268.023)">
    <g id="Ellipse_196" data-name="Ellipse 196" transform="translate(36 1268.023)" fill="#fdfdfd" stroke="#3d94c1" stroke-width="1" stroke-dasharray="1">
      <circle cx="40" cy="40" r="40" stroke="none"/>
      <circle cx="40" cy="40" r="39.5" fill="none"/>
    </g>
    <g id="Group_413" data-name="Group 413" transform="translate(59.143 1290.479)">
      <path id="Path_1581" data-name="Path 1581" d="M495.875,380.21a35.033,35.033,0,0,1-7.721-2.816c-.9-.459-1.774-.966-2.625-1.506l-.208-.149c-.851.451-1.74.889-2.625,1.306a52.158,52.158,0,0,1-5.709,2.31,40.275,40.275,0,0,1-4.722,1.276c-.983.2-1.974.357-2.978.485-.277.034-.549.064-.825.089,0,1.778,0,3.548.1,5.322.077,1.4.191,2.8.362,4.2.123,1.076.285,2.153.476,3.216.162.906.353,1.8.57,2.693.157.642.328,1.276.515,1.91a24.993,24.993,0,0,0,6.011,10.741,18.076,18.076,0,0,0,1.578,1.391,17.386,17.386,0,0,0,5.113,2.757c.523.179,1.055.328,1.591.464.272.068.272.068.545.128.425-.094.851-.2,1.276-.328a15.783,15.783,0,0,0,2.374-.949,16.117,16.117,0,0,0,1.987-1.149,14.975,14.975,0,0,0,1.234-.923,23.728,23.728,0,0,0,6.781-9.908q.426-1.038.753-2.106.415-1.276.74-2.552c.289-1.127.532-2.267.74-3.4.264-1.451.464-2.914.617-4.382.2-1.953.306-3.918.349-5.879v-1.229A42.116,42.116,0,0,1,495.875,380.21Zm3.765,3.356c-.064,1.748-.183,3.488-.383,5.224-.157,1.391-.366,2.769-.634,4.143-.213,1.068-.455,2.127-.744,3.186q-.319,1.2-.723,2.361-.332.978-.723,1.927c-.217.519-.425,1.034-.693,1.54a18.95,18.95,0,0,1-5.994,7.479,13.75,13.75,0,0,1-1.276.8,14.264,14.264,0,0,1-2.591,1.089l-.553.153a15.949,15.949,0,0,1-3.641-1.4,14.285,14.285,0,0,1-1.88-1.208,15.218,15.218,0,0,1-1.208-1.012,21.387,21.387,0,0,1-5.343-8.87c-.191-.57-.366-1.14-.527-1.7-.2-.706-.374-1.421-.532-2.127-.217-.978-.4-1.961-.545-2.948-.2-1.276-.345-2.6-.451-3.9-.136-1.621-.2-3.246-.225-4.871h.085c.851-.14,1.7-.3,2.552-.493a44.716,44.716,0,0,0,4.709-1.357c1.476-.515,2.927-1.1,4.348-1.736.732-.328,1.451-.672,2.17-1.021l.362-.179.132.077c.715.425,1.446.808,2.191,1.174a36.481,36.481,0,0,0,4.254,1.757,41.7,41.7,0,0,0,5.956,1.531l.949.162.953.136Z" transform="translate(-468.462 -375.739)" fill="#1a72a0"/>
      <path id="Path_1582" data-name="Path 1582" d="M502.894,409.132c-2.008,2.012-4.131,4.284-6.134,6.326l-2.684-2.208-.97-.8-1.6,1.957.957.8,3.573,2.944.885.727.808-.812c2.284-2.276,4.739-4.93,6.955-7.151l.893-.893-1.787-1.778Z" transform="translate(-481.701 -394.413)" fill="#1a72a0"/>
    </g>
  </g>
</svg>
